<?xml version="1.0" encoding="utf-8"?>
<!-- Generator: Adobe Illustrator 23.0.3, SVG Export Plug-In . SVG Version: 6.00 Build 0)  -->
<svg version="1.1" id="Layer_1" xmlns="http://www.w3.org/2000/svg" xmlns:xlink="http://www.w3.org/1999/xlink" x="0px" y="0px"
	 viewBox="0 0 846.5 166.1" style="enable-background:new 0 0 846.5 166.1;" xml:space="preserve">
<style type="text/css">
	.st0{fill:#241F13;}
</style>
<g>
	<path class="st0" d="M47.4,82.6c-9.6,0-17.4-1.2-23.6-3.7c-6.1-2.5-11-5.6-14.5-9.5s-6-8.2-7.3-12.9c-1.4-4.7-2-9.4-2-13.9v-3.2
		c0-5.1,0.8-9.9,2.3-14.7c1.5-4.7,4.3-8.9,8.2-12.6c4-3.7,9.3-6.6,16.1-8.8C33.4,1.1,42.1,0,52.7,0h2.9c8.1,0,15,0.5,20.8,1.5
		C82.2,2.6,87,3.9,91,5.6c3.9,1.7,7.1,3.6,9.4,5.8c2.3,2.2,4.1,4.5,5.4,6.8c1.3,2.3,2.1,4.6,2.4,6.9c0.4,2.3,0.6,4.4,0.6,6.4v0.1H73
		c-0.1-0.5-0.4-1.2-0.9-2c-0.5-0.9-1.3-1.7-2.6-2.5c-1.3-0.8-3-1.5-5.3-2.1c-2.3-0.6-5.4-0.9-9.2-0.9c-3.4,0-6.4,0.4-8.7,1.2
		c-2.4,0.8-4.4,1.9-5.9,3.4c-1.5,1.4-2.7,3.1-3.4,5.1c-0.7,2-1.1,4.2-1.1,6.6v1c0,2.5,0.3,4.8,1,7c0.7,2.2,1.8,4.1,3.3,5.7
		c1.5,1.6,3.4,2.9,5.8,3.8c2.4,0.9,5.3,1.4,8.7,1.4c3.4,0,6.2-0.3,8.4-0.8c2.2-0.5,4-1.2,5.3-1.9c1.3-0.7,2.2-1.5,2.8-2.3
		c0.5-0.8,0.8-1.5,0.8-2H53.6V35.9h55.6V81H85.7c-0.3-1.1-0.9-2.6-1.7-4.3c-0.8-1.7-1.6-3.1-2.5-4.1c-0.6,0.6-1.5,1.4-2.9,2.5
		c-1.4,1.1-3.3,2.2-5.8,3.3c-2.5,1.1-5.6,2.1-9.3,2.9c-3.7,0.8-8.3,1.2-13.7,1.2H47.4z"/>
	<path class="st0" d="M281.1,0c7.9,0,14.8,0.6,20.6,1.8c5.8,1.2,10.7,2.8,14.7,4.8s7.4,4.3,9.9,7c2.5,2.7,4.5,5.5,5.9,8.4
		c1.4,2.9,2.4,5.9,2.9,8.9c0.5,3,0.8,5.9,0.8,8.7v3.2c0,2.7-0.3,5.6-0.8,8.6c-0.5,3-1.5,6-2.9,9c-1.4,3-3.4,5.8-5.9,8.5
		c-2.5,2.7-5.8,5-9.9,7.1c-4.1,2.1-9,3.7-14.8,4.9c-5.8,1.2-12.6,1.8-20.5,1.8h-4.7c-7.9,0-14.7-0.6-20.5-1.8
		c-5.8-1.2-10.7-2.8-14.7-4.9c-4.1-2.1-7.4-4.4-9.9-7.1c-2.6-2.7-4.5-5.5-6-8.5c-1.4-3-2.4-6-2.9-9c-0.5-3-0.8-5.9-0.8-8.6v-3.2
		c0-2.8,0.3-5.7,0.8-8.7c0.5-3,1.5-6,2.9-8.9c1.4-2.9,3.4-5.7,5.9-8.4c2.5-2.7,5.8-5,9.9-7c4.1-2,9-3.6,14.7-4.8
		c5.8-1.2,12.6-1.8,20.6-1.8H281.1z M298.8,40.1c0-1.7-0.3-3.5-1-5.2c-0.7-1.8-1.8-3.4-3.3-4.8c-1.5-1.4-3.6-2.6-6.2-3.5
		c-2.6-0.9-5.8-1.3-9.6-1.3c-3.9,0-7.2,0.4-9.7,1.3c-2.6,0.9-4.6,2-6.1,3.5c-1.5,1.4-2.6,3-3.2,4.8c-0.6,1.8-0.9,3.5-0.9,5.2v1.3
		c0,1.8,0.3,3.6,1,5.4c0.7,1.9,1.8,3.5,3.4,5.1c1.6,1.5,3.6,2.8,6.2,3.7c2.6,1,5.7,1.4,9.5,1.4c3.8,0,7-0.5,9.6-1.4
		c2.6-0.9,4.6-2.1,6.2-3.6c1.6-1.5,2.7-3.2,3.4-5c0.7-1.8,1-3.7,1-5.4V40.1z"/>
	<path class="st0" d="M337.9,1.6H374v32.7c0,2.2,0.3,4.4,0.8,6.6c0.5,2.2,1.4,4.1,2.8,5.9c1.4,1.7,3.2,3.1,5.6,4.2
		c2.4,1.1,5.4,1.6,9.2,1.6h0.2c3.7,0,6.7-0.5,9.1-1.6c2.4-1.1,4.3-2.5,5.6-4.2c1.4-1.7,2.3-3.7,2.8-5.9c0.5-2.2,0.8-4.4,0.8-6.6V1.6
		H447v36.8c0,2.6-0.2,5.5-0.6,8.8c-0.4,3.2-1.2,6.4-2.5,9.7c-1.3,3.3-3.1,6.4-5.4,9.5c-2.4,3.1-5.5,5.8-9.4,8.2
		c-3.9,2.4-8.6,4.3-14.2,5.7c-5.6,1.4-12.3,2.1-20.1,2.1H390c-7.8,0-14.5-0.7-20.1-2.1c-5.6-1.4-10.3-3.3-14.2-5.7
		c-3.9-2.4-7-5.1-9.3-8.2c-2.3-3.1-4.1-6.2-5.3-9.5c-1.3-3.3-2.1-6.5-2.5-9.7c-0.4-3.2-0.6-6.1-0.6-8.8V1.6z"/>
	<path class="st0" d="M491,1.6L524,37.7V1.6H560V81h-36.6l-37-39.7V81h-35.9V1.6H491z"/>
	<path class="st0" d="M563.4,1.6h56.3c10,0,18.4,1,25.2,3c6.8,2,12.2,4.7,16.3,8.1c4.1,3.4,7,7.4,8.7,12c1.7,4.6,2.6,9.4,2.6,14.5
		v3.3c0,4.9-0.7,9.7-2.2,14.4c-1.5,4.7-4.1,8.8-8,12.3c-3.9,3.6-9.2,6.4-16.1,8.6c-6.9,2.2-15.7,3.3-26.5,3.3h-56.3V1.6z
		 M599.3,56.5h14.4c5.1,0,9.1-0.6,12-1.7c2.9-1.1,5-2.5,6.5-4.1c1.4-1.6,2.3-3.3,2.7-5c0.3-1.7,0.5-3.2,0.5-4.4v-0.6
		c0-1.1-0.2-2.5-0.6-4.2c-0.4-1.7-1.3-3.3-2.7-4.7c-1.5-1.5-3.6-2.8-6.5-3.8c-2.9-1.1-6.8-1.6-11.8-1.6h-14.4V56.5z"/>
	<path class="st0" d="M3.6,85.1H81c5.4,0,9.7,0.5,13.2,1.5c3.4,1,6.1,2.4,8.1,4.1c2,1.7,3.4,3.6,4.2,5.7c0.8,2.1,1.2,4.3,1.2,6.5
		v0.6c0,2.3-0.4,4.3-1.2,6c-0.8,1.7-1.8,3.3-3.2,4.6c-1.3,1.3-2.8,2.4-4.5,3.3c-1.7,0.9-3.4,1.5-5.2,1.9c2.3,0.4,2.6,0.5,4.8,1.4
		c2.2,0.9,4.7,2.8,6.4,4.5c1.7,1.6,3.1,3.7,4.1,6.1c1,2.5,1.6,5.5,1.6,9v0.9c0,3.1-0.5,6.1-1.6,8.9c-1,2.8-2.8,5.3-5.2,7.4
		c-2.4,2.1-5.6,3.8-9.5,5.1c-3.9,1.2-8.8,1.9-14.6,1.9H3.6V85.1z M39.5,105.7v7.7h25.1c2.2,0,3.8-0.3,4.8-0.9c1-0.6,1.5-1.6,1.5-3
		v-0.2c0-1.5-0.5-2.5-1.5-2.9c-1-0.5-2.6-0.7-4.8-0.7H39.5z M39.5,133.3v9.8h26.6c3.1,0,5.1-0.5,6.1-1.4c1-0.9,1.5-2.1,1.5-3.6v-0.2
		c0-1.5-0.5-2.6-1.5-3.4c-1-0.8-3-1.2-6.1-1.2H39.5z"/>
	<path class="st0" d="M306.5,85.1v22.2h-49.4v6.2h48.9v21.8h-48.9v6.8h49.8v22.4h-85.1V85.1H306.5z"/>
	<path class="st0" d="M383.8,155h-35.2l-3.7,9.5h-36.3l33.2-79.4h50.5l35.2,79.4h-40.1L383.8,155z M366,109.5l-8.4,22h17L366,109.5z
		"/>
	<path class="st0" d="M429.5,164.5V85.1h35.9v28.2l31.9-28.2H541l-41.8,35.7l42,43.8h-46.9l-28.9-31.7v31.7H429.5z"/>
	<path class="st0" d="M627.9,85.1v22.2h-49.4v6.2h48.9v21.8h-48.9v6.8h49.8v22.4h-85.1V85.1H627.9z"/>
	<path class="st0" d="M767.8,164.8c-5-0.9-9.3-2.1-12.8-3.6c-3.5-1.5-6.2-3.2-8.3-5.1c-2-1.9-3.6-3.9-4.7-6
		c-1.1-2.1-1.8-4.1-2.1-6.1c-0.3-2-0.5-3.9-0.5-5.6v-0.9h42.1c0,0.9,0.1,1.8,0.4,2.8c0.3,1,0.8,1.9,1.5,2.8c0.8,0.9,1.9,1.6,3.4,2.1
		c1.5,0.6,3.4,0.9,5.9,0.9c2.1,0,3.8-0.2,5.2-0.5c1.4-0.3,2.5-0.7,3.3-1.2c0.8-0.5,1.4-1.1,1.7-1.8c0.3-0.7,0.5-1.4,0.5-2.1v-0.3
		c0-0.6-0.1-1.3-0.3-1.9c-0.2-0.6-0.8-1.2-1.7-1.7c-0.9-0.5-2.2-0.9-3.9-1.3c-1.7-0.4-4.1-0.6-7.1-0.7l-14.8-0.5
		c-7.2-0.3-13.1-1.2-17.7-2.7c-4.5-1.5-8.1-3.4-10.6-5.7s-4.3-4.9-5.2-7.8c-0.9-2.9-1.4-5.9-1.4-9.1v-1c0-3.7,0.7-7,2.2-10
		c1.4-3,3.9-5.5,7.4-7.6c3.5-2.1,8-3.7,13.8-4.8c5.7-1.1,12.8-1.7,21.3-1.7h12c9.4,0,17.2,0.7,23.2,2c6,1.3,10.7,3.1,14.2,5.4
		c3.4,2.3,5.8,4.9,7.1,8s2,6.2,2,9.7v0.5h-41.2c-0.1-0.6-0.2-1.3-0.5-2.1c-0.3-0.7-0.8-1.4-1.5-2.1c-0.8-0.6-1.8-1.2-3.2-1.6
		c-1.4-0.4-3.2-0.6-5.6-0.6c-2.1,0-3.9,0.1-5.2,0.3c-1.3,0.2-2.4,0.4-3.1,0.8c-0.8,0.4-1.3,0.8-1.5,1.3c-0.3,0.5-0.4,1.1-0.4,1.8
		v0.2c0,0.8,0.2,1.4,0.6,2c0.4,0.5,1.1,1,2.1,1.4c1,0.4,2.4,0.7,4.2,1c1.8,0.2,4,0.4,6.7,0.5l14.2,0.4c6.9,0.2,12.6,0.9,17.3,1.9
		c4.7,1.1,8.5,2.6,11.4,4.6c2.9,2,5,4.5,6.3,7.4c1.3,3,1.9,6.5,1.9,10.5v1.5c0,3.6-0.6,7-1.9,10.3c-1.3,3.3-3.6,6.3-7.1,8.9
		c-3.5,2.6-8.4,4.7-14.6,6.2c-6.2,1.6-14.4,2.3-24.4,2.3h-12.4C778.9,166.1,772.9,165.7,767.8,164.8z"/>
	<g>
		<path class="st0" d="M677,7.3l-1.4,0l0,1.8l1.4,0c0.3,0,0.5-0.1,0.6-0.2c0.1-0.1,0.2-0.4,0.2-0.7c0-0.3-0.1-0.5-0.2-0.7
			C677.5,7.4,677.3,7.3,677,7.3z"/>
		<path class="st0" d="M684.1,7.4c-0.1-0.6-0.2-1.1-0.4-1.7c-0.2-0.6-0.4-1.1-0.8-1.6c-0.3-0.5-0.8-0.9-1.3-1.3s-1.2-0.7-2-0.9
			c-0.8-0.2-1.7-0.3-2.7-0.3h-0.6c-1.1,0-2,0.1-2.7,0.3c-0.8,0.2-1.4,0.5-2,0.9c-0.5,0.4-1,0.8-1.3,1.3c-0.3,0.5-0.6,1-0.8,1.6
			c-0.2,0.6-0.3,1.1-0.4,1.7C669.1,8,669,8.6,669,9.1v0.6c0,0.5,0,1.1,0.1,1.6c0.1,0.6,0.2,1.1,0.4,1.7c0.2,0.6,0.5,1.1,0.8,1.6
			c0.3,0.5,0.8,1,1.3,1.3c0.5,0.4,1.2,0.7,2,0.9c0.8,0.2,1.7,0.3,2.7,0.3h0.6c1,0,2-0.1,2.7-0.3c0.8-0.2,1.4-0.5,2-0.9
			c0.5-0.4,1-0.8,1.3-1.3c0.3-0.5,0.6-1,0.8-1.6c0.2-0.6,0.3-1.1,0.4-1.7c0.1-0.6,0.1-1.1,0.1-1.6V9.1C684.2,8.6,684.2,8,684.1,7.4z
			 M678,12.6c-0.1-0.2-0.1-0.4-0.1-0.7c0-0.3,0-0.6-0.1-0.8c0-0.3-0.1-0.6-0.3-0.7c-0.1-0.2-0.4-0.2-0.7-0.2l-1.3,0l0,2.5l-1.3,0
			l0-6.4l3.1,0c0.3,0,0.5,0,0.7,0.1c0.2,0.1,0.4,0.2,0.5,0.4c0.1,0.2,0.3,0.3,0.3,0.6c0.1,0.2,0.1,0.4,0.1,0.7c0,0.4-0.1,0.7-0.2,1
			c-0.1,0.3-0.4,0.5-0.7,0.6l0,0c0.2,0,0.3,0.1,0.4,0.2c0.1,0.1,0.2,0.2,0.2,0.4c0.1,0.1,0.1,0.3,0.1,0.4c0,0.2,0,0.3,0.1,0.5
			c0,0.1,0,0.2,0,0.4c0,0.1,0,0.3,0,0.4c0,0.1,0,0.3,0.1,0.4c0,0.1,0.1,0.2,0.1,0.3L678,12.6z"/>
	</g>
	<path class="st0" d="M218.3,60.9c0-5.2-1.4-9.5-4.1-13c-2.7-3.5-6.9-5.8-12.5-7c1.6-0.4,3.3-1,5.2-1.8c1.9-0.9,3.7-2,5.3-3.5
		c1.6-1.5,3-3.3,4.1-5.4c1.1-2.1,1.7-4.7,1.7-7.7v-1c0-3.9-0.7-7.2-2.2-9.8c-1.5-2.6-3.5-4.7-6-6.2c-2.5-1.5-5.4-2.6-8.8-3.2
		c-3.4-0.6-6.9-0.9-10.7-0.9h-77.7V81h35.9V55.6h20c5,0,8.6,1.2,10.6,3.6c2,2.4,3,5.7,3,9.7v3.7h0V81h36.2v-7.9c0,0,0,0,0-0.1V60.9z
		 M179.8,31.9c-0.9,1-2.6,1.4-5.1,1.4h-26.2v-10h26.2c2.4,0,4.1,0.5,5.1,1.4c1,0.9,1.5,2.1,1.5,3.6
		C181.2,29.7,180.7,30.9,179.8,31.9z"/>
	<path class="st0" d="M218.3,144.4c0-5.2-1.4-9.5-4.1-13c-2.7-3.5-6.9-5.8-12.5-7c1.6-0.4,3.3-1,5.2-1.8c1.9-0.9,3.7-2,5.3-3.5
		c1.6-1.5,3-3.3,4.1-5.4c1.1-2.1,1.7-4.7,1.7-7.7v-1c0-3.9-0.7-7.2-2.2-9.8c-1.5-2.6-3.5-4.7-6-6.2c-2.5-1.5-5.4-2.6-8.8-3.2
		c-3.4-0.6-6.9-0.9-10.7-0.9h-77.7v79.4h35.9v-25.4h20c5,0,8.6,1.2,10.6,3.6c2,2.4,3,5.7,3,9.7v3.7h0v8.4h36.2v-7.9c0,0,0,0,0-0.1
		V144.4z M179.8,115.3c-0.9,1-2.6,1.4-5.1,1.4h-26.2v-10h26.2c2.4,0,4.1,0.5,5.1,1.4c1,0.9,1.5,2.1,1.5,3.6
		C181.2,113.2,180.7,114.4,179.8,115.3z"/>
	<path class="st0" d="M737.4,144.4c0-5.2-1.4-9.5-4.1-13c-2.7-3.5-6.9-5.8-12.5-7c1.6-0.4,3.3-1,5.2-1.8c1.9-0.9,3.7-2,5.3-3.5
		c1.6-1.5,3-3.3,4.1-5.4c1.1-2.1,1.7-4.7,1.7-7.7v-1c0-3.9-0.7-7.2-2.2-9.8c-1.5-2.6-3.5-4.7-6-6.2c-2.5-1.5-5.4-2.6-8.8-3.2
		c-3.4-0.6-6.9-0.9-10.7-0.9h-77.7v79.4h35.9v-25.4h20c5,0,8.6,1.2,10.6,3.6c2,2.4,3,5.7,3,9.7v3.7h0v8.4h36.2v-7.9c0,0,0,0,0-0.1
		V144.4z M698.9,115.3c-0.9,1-2.6,1.4-5.1,1.4h-26.2v-10h26.2c2.4,0,4.1,0.5,5.1,1.4c1,0.9,1.5,2.1,1.5,3.6
		C700.3,113.2,699.8,114.4,698.9,115.3z"/>
</g>
</svg>
